{"asset":{"version":"2.0","generator":"Codex The Blind One rig builder"},"scene":0,"scenes":[{"name":"TheBlindOneRig","nodes":[0,1,2,3,4,5,6,7,8,9,10,11,12,13,14]}],"nodes":[{"name":"RightUpperLeg","mesh":0,"translation":[0.48,2.6517445477326813,0.01999100067494372]},{"name":"RightLowerLeg","mesh":1,"translation":[0.5136591984156649,0.9311836918930875,-0.05084755484035555]},{"name":"RightFoot","mesh":2,"translation":[0.57,0.21999999999999997,-0.33999999999999997]},{"name":"LeftUpperLeg","mesh":3,"translation":[-0.48,2.6517445477326813,0.01999100067494372]},{"name":"LeftLowerLeg","mesh":4,"translation":[-0.5136591984156649,0.9311836918930875,-0.05084755484035555]},{"name":"LeftFoot","mesh":5,"translation":[-0.57,0.21999999999999997,-0.33999999999999997]},{"name":"Torso","mesh":6,"translation":[0.0,5.125583226942292,0.08000000000000007]},{"name":"RightUpperArm","mesh":7,"translation":[1.3816569267504817,4.7415303098774695,0.08000000000000002]},{"name":"RightLowerArm","mesh":8,"translation":[1.47,3.2918573887463998,0.014840027248005039]},{"name":"RightHand","mesh":9,"translation":[1.48,1.6632310251026408,-0.06]},{"name":"LeftUpperArm","mesh":10,"translation":[-1.3817668053310461,4.82236206236764,0.08000000000000002]},{"name":"LeftLowerArm","mesh":11,"translation":[-1.47,3.3711013441017688,0.014961162963967295]},{"name":"LeftHand","mesh":12,"translation":[-1.48,1.6632310251026408,-0.06]},{"name":"Head","mesh":13,"translation":[0.0,6.98413535310772,-0.07803439919168392]},{"name":"LowerTorso","mesh":14,"translation":[0.0,2.79,0.16]}],"meshes":[{"name":"RightUpperLeg","primitives":[{"attributes":{"POSITION":0,"NORMAL":1,"TEXCOORD_0":2},"indices":3,"material":0}]},{"name":"RightLowerLeg","primitives":[{"attributes":{"POSITION":4,"NORMAL":5,"TEXCOORD_0":6},"indices":7,"material":0}]},{"name":"RightFoot","primitives":[{"attributes":{"POSITION":8,"NORMAL":9,"TEXCOORD_0":10},"indices":11,"material":0}]},{"name":"LeftUpperLeg","primitives":[{"attributes":{"POSITION":12,"NORMAL":13,"TEXCOORD_0":14},"indices":15,"material":0}]},{"name":"LeftLowerLeg","primitives":[{"attributes":{"POSITION":16,"NORMAL":17,"TEXCOORD_0":18},"indices":19,"material":0}]},{"name":"LeftFoot","primitives":[{"attributes":{"POSITION":20,"NORMAL":21,"TEXCOORD_0":22},"indices":23,"material":0}]},{"name":"Torso","primitives":[{"attributes":{"POSITION":24,"NORMAL":25,"TEXCOORD_0":26},"indices":27,"material":0}]},{"name":"RightUpperArm","primitives":[{"attributes":{"POSITION":28,"NORMAL":29,"TEXCOORD_0":30},"indices":31,"material":0}]},{"name":"RightLowerArm","primitives":[{"attributes":{"POSITION":32,"NORMAL":33,"TEXCOORD_0":34},"indices":35,"material":0}]},{"name":"RightHand","primitives":[{"attributes":{"POSITION":36,"NORMAL":37,"TEXCOORD_0":38},"indices":39,"material":0}]},{"name":"LeftUpperArm","primitives":[{"attributes":{"POSITION":40,"NORMAL":41,"TEXCOORD_0":42},"indices":43,"material":0}]},{"name":"LeftLowerArm","primitives":[{"attributes":{"POSITION":44,"NORMAL":45,"TEXCOORD_0":46},"indices":47,"material":0}]},{"name":"LeftHand","primitives":[{"attributes":{"POSITION":48,"NORMAL":49,"TEXCOORD_0":50},"indices":51,"material":0}]},{"name":"Head","primitives":[{"attributes":{"POSITION":52,"NORMAL":53,"TEXCOORD_0":54},"indices":55,"material":0}]},{"name":"LowerTorso","primitives":[{"attributes":{"POSITION":56,"NORMAL":57,"TEXCOORD_0":58},"indices":59,"material":0}]}],"materials":[{"name":"MonsterAtlas","doubleSided":true,"pbrMetallicRoughness":{"baseColorTexture":{"index":0},"metallicFactor":0.0,"roughnessFactor":0.92}}],"textures":[{"sampler":0,"source":0}],"images":[{"uri":"the_blind_one_two_sided_atlas.png"}],"samplers":[{"magFilter":9729,"minFilter":9987,"wrapS":33071,"wrapT":33071}],"buffers":[{"uri":"TheBlindOneRigged.bin","byteLength":978480}],"bufferViews":[{"buffer":0,"byteOffset":0,"byteLength":3456,"target":34962},{"buffer":0,"byteOffset":3456,"byteLength":3456,"target":34962},{"buffer":0,"byteOffset":6912,"byteLength":2304,"target":34962},{"buffer":0,"byteOffset":9216,"byteLength":1152,"target":34963},{"buffer":0,"byteOffset":10368,"byteLength":3456,"target":34962},{"buffer":0,"byteOffset":13824,"byteLength":3456,"target":34962},{"buffer":0,"byteOffset":17280,"byteLength":2304,"target":34962},{"buffer":0,"byteOffset":19584,"byteLength":1152,"target":34963},{"buffer":0,"byteOffset":20736,"byteLength":20592,"target":34962},{"buffer":0,"byteOffset":41328,"byteLength":20592,"target":34962},{"buffer":0,"byteOffset":61920,"byteLength":13728,"target":34962},{"buffer":0,"byteOffset":75648,"byteLength":6864,"target":34963},{"buffer":0,"byteOffset":82512,"byteLength":3456,"target":34962},{"buffer":0,"byteOffset":85968,"byteLength":3456,"target":34962},{"buffer":0,"byteOffset":89424,"byteLength":2304,"target":34962},{"buffer":0,"byteOffset":91728,"byteLength":1152,"target":34963},{"buffer":0,"byteOffset":92880,"byteLength":3456,"target":34962},{"buffer":0,"byteOffset":96336,"byteLength":3456,"target":34962},{"buffer":0,"byteOffset":99792,"byteLength":2304,"target":34962},{"buffer":0,"byteOffset":102096,"byteLength":1152,"target":34963},{"buffer":0,"byteOffset":103248,"byteLength":20592,"target":34962},{"buffer":0,"byteOffset":123840,"byteLength":20592,"target":34962},{"buffer":0,"byteOffset":144432,"byteLength":13728,"target":34962},{"buffer":0,"byteOffset":158160,"byteLength":6864,"target":34963},{"buffer":0,"byteOffset":165024,"byteLength":84528,"target":34962},{"buffer":0,"byteOffset":249552,"byteLength":84528,"target":34962},{"buffer":0,"byteOffset":334080,"byteLength":56352,"target":34962},{"buffer":0,"byteOffset":390432,"byteLength":28176,"target":34963},{"buffer":0,"byteOffset":418608,"byteLength":2016,"target":34962},{"buffer":0,"byteOffset":420624,"byteLength":2016,"target":34962},{"buffer":0,"byteOffset":422640,"byteLength":1344,"target":34962},{"buffer":0,"byteOffset":423984,"byteLength":672,"target":34963},{"buffer":0,"byteOffset":424656,"byteLength":2448,"target":34962},{"buffer":0,"byteOffset":427104,"byteLength":2448,"target":34962},{"buffer":0,"byteOffset":429552,"byteLength":1632,"target":34962},{"buffer":0,"byteOffset":431184,"byteLength":816,"target":34963},{"buffer":0,"byteOffset":432000,"byteLength":29664,"target":34962},{"buffer":0,"byteOffset":461664,"byteLength":29664,"target":34962},{"buffer":0,"byteOffset":491328,"byteLength":19776,"target":34962},{"buffer":0,"byteOffset":511104,"byteLength":9888,"target":34963},{"buffer":0,"byteOffset":520992,"byteLength":2016,"target":34962},{"buffer":0,"byteOffset":523008,"byteLength":2016,"target":34962},{"buffer":0,"byteOffset":525024,"byteLength":1344,"target":34962},{"buffer":0,"byteOffset":526368,"byteLength":672,"target":34963},{"buffer":0,"byteOffset":527040,"byteLength":2448,"target":34962},{"buffer":0,"byteOffset":529488,"byteLength":2448,"target":34962},{"buffer":0,"byteOffset":531936,"byteLength":1632,"target":34962},{"buffer":0,"byteOffset":533568,"byteLength":816,"target":34963},{"buffer":0,"byteOffset":534384,"byteLength":29664,"target":34962},{"buffer":0,"byteOffset":564048,"byteLength":29664,"target":34962},{"buffer":0,"byteOffset":593712,"byteLength":19776,"target":34962},{"buffer":0,"byteOffset":613488,"byteLength":9888,"target":34963},{"buffer":0,"byteOffset":623376,"byteLength":116640,"target":34962},{"buffer":0,"byteOffset":740016,"byteLength":116640,"target":34962},{"buffer":0,"byteOffset":856656,"byteLength":77760,"target":34962},{"buffer":0,"byteOffset":934416,"byteLength":38880,"target":34963},{"buffer":0,"byteOffset":973296,"byteLength":1728,"target":34962},{"buffer":0,"byteOffset":975024,"byteLength":1728,"target":34962},{"buffer":0,"byteOffset":976752,"byteLength":1152,"target":34962},{"buffer":0,"byteOffset":977904,"byteLength":576,"target":34963}],"accessors":[{"bufferView":0,"componentType":5126,"count":288,"type":"VEC3","min":[-0.4166896343231201,-1.1301517486572266,-0.37999099493026733],"max":[0.4166896343231201,1.1301517486572266,0.37999099493026733]},{"bufferView":1,"componentType":5126,"count":288,"type":"VEC3"},{"bufferView":2,"componentType":5126,"count":288,"type":"VEC2"},{"bufferView":3,"componentType":5125,"count":288,"type":"SCALAR"},{"bufferView":4,"componentType":5126,"count":288,"type":"VEC3","min":[-0.3752472400665283,-0.7368029952049255,-0.34511515498161316],"max":[0.3752472400665283,0.7368029952049255,0.34511515498161316]},{"bufferView":5,"componentType":5126,"count":288,"type":"VEC3"},{"bufferView":6,"componentType":5126,"count":288,"type":"VEC2"},{"bufferView":7,"componentType":5125,"count":288,"type":"SCALAR"},{"bufferView":8,"componentType":5126,"count":1716,"type":"VEC3","min":[-0.4300000071525574,-0.25,-0.6730785965919495],"max":[0.4300000071525574,0.25,0.6730785965919495]},{"bufferView":9,"componentType":5126,"count":1716,"type":"VEC3"},{"bufferView":10,"componentType":5126,"count":1716,"type":"VEC2"},{"bufferView":11,"componentType":5125,"count":1716,"type":"SCALAR"},{"bufferView":12,"componentType":5126,"count":288,"type":"VEC3","min":[-0.4166896343231201,-1.1301517486572266,-0.37999099493026733],"max":[0.4166896343231201,1.1301517486572266,0.37999099493026733]},{"bufferView":13,"componentType":5126,"count":288,"type":"VEC3"},{"bufferView":14,"componentType":5126,"count":288,"type":"VEC2"},{"bufferView":15,"componentType":5125,"count":288,"type":"SCALAR"},{"bufferView":16,"componentType":5126,"count":288,"type":"VEC3","min":[-0.3752472400665283,-0.7368029952049255,-0.34511515498161316],"max":[0.3752472400665283,0.7368029952049255,0.34511515498161316]},{"bufferView":17,"componentType":5126,"count":288,"type":"VEC3"},{"bufferView":18,"componentType":5126,"count":288,"type":"VEC2"},{"bufferView":19,"componentType":5125,"count":288,"type":"SCALAR"},{"bufferView":20,"componentType":5126,"count":1716,"type":"VEC3","min":[-0.4300000071525574,-0.25,-0.6730785965919495],"max":[0.4300000071525574,0.25,0.6730785965919495]},{"bufferView":21,"componentType":5126,"count":1716,"type":"VEC3"},{"bufferView":22,"componentType":5126,"count":1716,"type":"VEC2"},{"bufferView":23,"componentType":5125,"count":1716,"type":"SCALAR"},{"bufferView":24,"componentType":5126,"count":7044,"type":"VEC3","min":[-1.9900000095367432,-1.5982372760772705,-1.3994401693344116],"max":[1.9900000095367432,1.5982372760772705,1.3994401693344116]},{"bufferView":25,"componentType":5126,"count":7044,"type":"VEC3"},{"bufferView":26,"componentType":5126,"count":7044,"type":"VEC2"},{"bufferView":27,"componentType":5125,"count":7044,"type":"SCALAR"},{"bufferView":28,"componentType":5126,"count":168,"type":"VEC3","min":[-0.4767445921897888,-0.7472424507141113,-0.3868398666381836],"max":[0.4767445921897888,0.7472424507141113,0.3868398666381836]},{"bufferView":29,"componentType":5126,"count":168,"type":"VEC3"},{"bufferView":30,"componentType":5126,"count":168,"type":"VEC2"},{"bufferView":31,"componentType":5125,"count":168,"type":"SCALAR"},{"bufferView":32,"componentType":5126,"count":204,"type":"VEC3","min":[-0.44520464539527893,-0.7795687317848206,-0.40484002232551575],"max":[0.44520464539527893,0.7795687317848206,0.40484002232551575]},{"bufferView":33,"componentType":5126,"count":204,"type":"VEC3"},{"bufferView":34,"componentType":5126,"count":204,"type":"VEC2"},{"bufferView":35,"componentType":5125,"count":204,"type":"SCALAR"},{"bufferView":36,"componentType":5126,"count":2472,"type":"VEC3","min":[-0.46000000834465027,-0.9867689609527588,-0.35633572936058044],"max":[0.46000000834465027,0.9867689609527588,0.35633572936058044]},{"bufferView":37,"componentType":5126,"count":2472,"type":"VEC3"},{"bufferView":38,"componentType":5126,"count":2472,"type":"VEC2"},{"bufferView":39,"componentType":5125,"count":2472,"type":"SCALAR"},{"bufferView":40,"componentType":5126,"count":168,"type":"VEC3","min":[-0.47586554288864136,-0.6738964915275574,-0.3867955207824707],"max":[0.47586554288864136,0.6738964915275574,0.3867955207824707]},{"bufferView":41,"componentType":5126,"count":168,"type":"VEC3"},{"bufferView":42,"componentType":5126,"count":168,"type":"VEC2"},{"bufferView":43,"componentType":5125,"count":168,"type":"SCALAR"},{"bufferView":44,"componentType":5126,"count":204,"type":"VEC3","min":[-0.44520464539527893,-0.8573055863380432,-0.40496116876602173],"max":[0.44520464539527893,0.8573055863380432,0.40496116876602173]},{"bufferView":45,"componentType":5126,"count":204,"type":"VEC3"},{"bufferView":46,"componentType":5126,"count":204,"type":"VEC2"},{"bufferView":47,"componentType":5125,"count":204,"type":"SCALAR"},{"bufferView":48,"componentType":5126,"count":2472,"type":"VEC3","min":[-0.46000000834465027,-0.9867689609527588,-0.35633572936058044],"max":[0.46000000834465027,0.9867689609527588,0.35633572936058044]},{"bufferView":49,"componentType":5126,"count":2472,"type":"VEC3"},{"bufferView":50,"componentType":5126,"count":2472,"type":"VEC2"},{"bufferView":51,"componentType":5125,"count":2472,"type":"SCALAR"},{"bufferView":52,"componentType":5126,"count":9720,"type":"VEC3","min":[-1.5879076719284058,-1.9747419357299805,-0.8002986907958984],"max":[1.5879076719284058,1.9747419357299805,0.8002986907958984]},{"bufferView":53,"componentType":5126,"count":9720,"type":"VEC3"},{"bufferView":54,"componentType":5126,"count":9720,"type":"VEC2"},{"bufferView":55,"componentType":5125,"count":9720,"type":"SCALAR"},{"bufferView":56,"componentType":5126,"count":144,"type":"VEC3","min":[-0.75,-1.0099999904632568,-0.07999999821186066],"max":[0.75,1.0099999904632568,0.07999999821186066]},{"bufferView":57,"componentType":5126,"count":144,"type":"VEC3"},{"bufferView":58,"componentType":5126,"count":144,"type":"VEC2"},{"bufferView":59,"componentType":5125,"count":144,"type":"SCALAR"}]}